<svg width="73" height="135" viewBox="0 0 73 135" fill="none" xmlns="http://www.w3.org/2000/svg">
<path d="M36.2068 72.0742C16.1381 71.9987 0.0189444 55.691 0.135886 35.5846C0.249056 16.1534 16.6813 -0.0826742 36.1426 0.000316756C56.1661 0.08708 72.2663 16.3043 72.2135 36.3277C72.1607 55.857 55.7474 72.1496 36.2068 72.0742ZM36.2332 20.6047C27.7417 20.533 20.8044 27.327 20.7403 35.777C20.6724 44.5212 27.3456 51.3642 36.037 51.4736C44.5436 51.5792 51.4997 44.8343 51.6091 36.3805C51.7185 27.5646 45.0038 20.6764 36.2332 20.6047Z" fill="white"/>
<path d="M55.7925 100.155C58.5048 103.407 61.2736 106.73 64.0463 110.054C65.9362 112.317 67.8375 114.569 69.7123 116.844C73.5299 121.473 73.13 127.867 68.8032 131.549C64.2802 135.396 57.9502 134.789 53.9516 130.04C48.4968 123.563 43.0948 117.04 37.6702 110.541C37.2289 110.012 36.7724 109.492 36.1764 108.794C35.0409 110.137 33.9809 111.382 32.9322 112.638C28.0886 118.436 23.26 124.249 18.3975 130.036C14.4969 134.68 8.31786 135.389 3.79108 131.756C-0.652709 128.184 -1.30909 121.763 2.45568 117.116C6.77121 111.785 11.2225 106.565 15.6135 101.291C15.9493 100.887 16.2586 100.465 16.6584 99.9441C14.3988 99.0991 12.2486 98.3408 10.1361 97.4883C8.64982 96.8885 7.18616 96.217 5.75646 95.4927C0.709096 92.9464 -1.39208 86.9711 0.965614 81.9464C3.37612 76.8009 9.3062 74.4998 14.512 76.9065C19.2991 79.1171 24.139 81.0146 29.39 81.8143C38.685 83.2327 47.5235 81.7841 55.9622 77.7478C58.369 76.5972 60.753 75.6843 63.5106 76.1634C67.9582 76.9367 71.1646 80.0564 72.0436 84.6285C72.8245 88.6762 70.927 93.1464 67.117 95.1306C63.5257 97.0054 59.7081 98.4427 55.7925 100.155Z" fill="white"/>
</svg>